<?xml version="1.0" encoding="utf-8"?>
<!-- Generator: Adobe Illustrator 19.0.0, SVG Export Plug-In . SVG Version: 6.00 Build 0)  -->
<svg version="1.1" xmlns="http://www.w3.org/2000/svg" xmlns:xlink="http://www.w3.org/1999/xlink" x="0px" y="0px"
	 viewBox="0 0 1071.9 757.9" style="enable-background:new 0 0 1071.9 757.9;" xml:space="preserve">
<style type="text/css">
	.st0{clip-path:url(#SVGID_2_);fill:#6E6F72;}
	.st1{clip-path:url(#SVGID_2_);}
	.st2{fill:#6E6F72;}
	.st3{fill:#5D5D5D;}
	.dot {
		stroke: #5D5D5D !important; 
		fill: none !important; 
		stroke-width: 3 !important;
	}
	.st4{fill:#2CACE2;}
	.st5{clip-path:url(#SVGID_4_);}
	.st6{fill-rule:evenodd;clip-rule:evenodd;fill:#5D5D5D;}
	.st7{fill-rule:evenodd;clip-rule:evenodd;fill:#2CACE2;}
</style>
<g id="Layer_1">
</g>
<g id="Layer_2">
</g>
<g id="Layer_3">
	<g>
		<g>
			<defs>
				<polyline id="SVGID_1_" points="115,676.6 956.9,676.6 956.9,81.3 115,81.3 				"/>
			</defs>
			<clipPath id="SVGID_2_">
				<use xlink:href="#SVGID_1_"  style="overflow:visible;"/>
			</clipPath>
			<polygon class="st0" points="286.3,580.3 272.6,598.6 271,598.6 257.5,580.2 257.5,611 249.5,611 249.5,568.7 258.7,568.7 
				272,586.9 285.2,568.7 294.3,568.7 294.3,611 286.3,611 			"/>
			<g class="st1">
				<path class="st2" d="M330,581.1h7.1v29.8h-6.9l-0.4-4.4c-1.7,3.5-6.3,5.2-9.7,5.3c-8.8,0.1-15.3-5.4-15.3-15.8
					c0-10.3,6.8-15.7,15.5-15.6c4,0,7.8,1.9,9.5,4.8L330,581.1z M312.1,596c0,5.7,3.9,9.1,8.8,9.1c11.6,0,11.6-18.1,0-18.1
					C316.1,587,312.1,590.3,312.1,596"/>
				<path class="st2" d="M354.7,581.1l0.5,3.4c2.3-3.7,5.4-4.2,8.4-4.2c3.1,0,6,1.2,7.7,2.8l-3.3,6.4c-1.5-1.3-2.9-1.9-5.3-1.9
					c-3.9,0-7.4,2.1-7.4,7.6v15.7h-7.4v-29.8H354.7z"/>
				<polygon class="st2" points="385.8,568.7 385.8,593.1 395.8,581.1 404.7,581.1 404.7,581.5 392.5,595.1 406.3,610.4 
					406.3,610.9 397.5,610.9 385.8,597.4 385.8,610.9 378.4,610.9 378.4,568.7 				"/>
				<path class="st2" d="M420.5,598.6c0.5,3.7,3.7,6.3,8.9,6.3c2.7,0,6.3-1,8-2.8l4.7,4.7c-3.1,3.3-8.3,4.8-12.8,4.8
					c-10.3,0-16.4-6.3-16.4-15.9c0-9.1,6.2-15.6,15.8-15.6c10,0,16.2,6.2,15,18.4H420.5z M436.7,592.5c-0.5-3.9-3.5-5.8-7.7-5.8
					c-4,0-7.3,1.9-8.3,5.8H436.7z"/>
				<path class="st2" d="M463.1,572.7v8.5h8.2v6.3h-8.3v12.9c0,2.8,1.6,4.2,3.9,4.2c1.1,0,2.5-0.4,3.6-0.9l2.1,6.3
					c-2.1,0.8-3.9,1.2-6.1,1.3c-6.5,0.2-10.7-3.4-10.7-10.9v-12.9h-5.6v-6.3h5.6v-7.7L463.1,572.7z"/>
				<path class="st2" d="M489.4,572.7c0,5.7-8.7,5.7-8.7,0C480.7,567,489.4,567,489.4,572.7 M481.4,610.9h7.4V581h-7.4V610.9z"/>
				<path class="st2" d="M521.9,610.9v-15.6c0-4.5-2.5-8-7.2-8c-4.5,0-7.6,3.8-7.6,8.3v15.2h-7.3v-29.9h6.6l0.5,4c3-3,6-4.5,9.8-4.5
					c7,0,12.6,5.3,12.6,14.6v15.7H521.9z"/>
				<path class="st2" d="M563.5,578.1l5.4,4.1l-3.3,4.2c2.3,2.6,3.1,5.6,3.1,8.8c0,3.7-1.4,8.9-6.3,11.1c5,2.5,6.2,6,6.2,9.8
					c0,8.2-6.3,13.3-14.9,13.3s-15.1-5.3-15.1-13.3h7.3c0,3.9,3.6,6.4,7.8,6.4c4.2,0,7.6-2.3,7.6-6.4c0-4.1-3.9-6-7.6-6
					c-9.3,0-15.1-5.7-15.1-15c0-9.3,6.8-15.1,15.1-15.1c2.4,0,4.8,0.3,6.8,1.7L563.5,578.1z M545.9,595.3c0,5.2,3.5,8.3,7.8,8.3
					c4.2,0,7.7-3.1,7.7-8.3c0-5.1-3.5-8.4-7.7-8.4C549.4,586.9,545.9,590.1,545.9,595.3"/>
				<path class="st2" d="M625.3,602.9h-22.1l-3.6,8h-8.6l19-42.3h8.7l19,42.3h-8.7L625.3,602.9z M614.3,577.5l-7.9,18h15.7
					L614.3,577.5z"/>
				<path class="st2" d="M669.2,578.1l5.4,4.1l-3.3,4.2c2.3,2.6,3.1,5.6,3.1,8.8c0,3.7-1.4,8.9-6.3,11.1c5,2.5,6.2,6,6.2,9.8
					c0,8.2-6.3,13.3-14.9,13.3s-15.1-5.3-15.1-13.3h7.3c0,3.9,3.6,6.4,7.8,6.4c4.2,0,7.6-2.3,7.6-6.4c0-4.1-3.9-6-7.6-6
					c-9.3,0-15.1-5.7-15.1-15c0-9.3,6.8-15.1,15.1-15.1c2.4,0,4.8,0.3,6.8,1.7L669.2,578.1z M651.6,595.3c0,5.2,3.5,8.3,7.8,8.3
					c4.2,0,7.7-3.1,7.7-8.3c0-5.1-3.5-8.4-7.7-8.4C655.1,586.9,651.6,590.1,651.6,595.3"/>
				<path class="st2" d="M690,598.6c0.5,3.7,3.7,6.3,8.9,6.3c2.7,0,6.3-1,8-2.8l4.7,4.7c-3.1,3.3-8.3,4.8-12.8,4.8
					c-10.3,0-16.4-6.3-16.4-15.9c0-9.1,6.2-15.6,15.8-15.6c10,0,16.2,6.2,15,18.4H690z M706.2,592.5c-0.5-3.9-3.5-5.8-7.7-5.8
					c-4,0-7.3,1.9-8.3,5.8H706.2z"/>
				<path class="st2" d="M745.4,610.9v-15.6c0-4.5-2.5-8-7.2-8c-4.5,0-7.6,3.8-7.6,8.3v15.2h-7.3v-29.9h6.6l0.5,4c3-3,6-4.5,9.8-4.5
					c7,0,12.6,5.3,12.6,14.6v15.7H745.4z"/>
				<path class="st2" d="M789.2,607.1c-3.4,3.4-7.1,4.7-11.5,4.7c-8.6,0-15.8-5.2-15.8-15.8c0-10.6,7.2-15.8,15.8-15.8
					c4.2,0,7.5,1.2,10.8,4.4l-4.7,4.9c-1.8-1.6-3.9-2.4-6-2.4c-5,0-8.6,3.6-8.6,8.8c0,5.7,3.9,8.7,8.5,8.7c2.4,0,4.7-0.7,6.5-2.5
					L789.2,607.1z"/>
				<polygon class="st2" points="827,581.1 808.8,623.4 800.7,623.4 806.3,610.4 794.4,581.1 803,581.1 807.5,594 810.3,602.4 
					813.4,594.2 818.8,581.1 				"/>
				<polygon class="st3" points="540.6,519 540.6,519 515.9,519 508.4,537.6 540.6,537.6 540.6,537.6 556.2,537.6 556.2,519 				"/>
				<path class="st4" d="M319.5,479.7c4.1,2.9,7.4,6.6,9.9,11.2c2.5,4.6,3.7,9.5,3.7,14.9v0.3c0,4.3-0.8,8.4-2.5,12.3
					c-1.7,3.9-3.9,7.2-6.8,10.1c-2.9,2.8-6.2,5.1-10.1,6.7c-3.8,1.7-7.9,2.5-12.2,2.5h-30.8l7.4-18.6h23.4c3.6,0,6.7-1.3,9.2-3.8
					c2.5-2.5,3.8-5.6,3.8-9.2v-0.3c0-3.6-1.3-6.7-3.8-9.2c-2.5-2.5-5.6-3.8-9.2-3.8H294h-30.4V519v18.6H245v-44.9v-18.6v-44.9h49
					c4.3,0,8.4,0.8,12.3,2.5c3.9,1.7,7.2,3.9,10.1,6.8c2.8,2.9,5.1,6.2,6.7,10.1c1.7,3.8,2.5,7.9,2.5,12.3v0.3c0,3.5-0.5,6.9-1.6,10
					C322.9,474.3,321.4,477.1,319.5,479.7 M307,460.8c0-3.6-1.3-6.7-3.8-9.2c-2.5-2.5-5.6-3.8-9.2-3.8h-30.4v26.3H294
					c3.6,0,6.7-1.3,9.2-3.8c2.5-2.5,3.8-5.6,3.8-9.2V460.8z"/>
				<rect x="343.2" y="429.2" class="st4" width="18.6" height="108.4"/>
				<path class="st4" d="M444.5,460.2v77.4h-18.6v-5.9c-2.8,2.4-5.9,4.3-9.4,5.8c-3.5,1.5-7.4,2.2-11.8,2.2c-5.1,0-9.7-1-13.8-2.9
					c-4.1-1.9-7.7-4.5-10.6-7.8c-3-3.3-5.2-7.2-6.8-11.6c-1.6-4.4-2.4-9.2-2.4-14.3v-43.1h18.6v43.1c0,4.9,1.8,9.1,5.4,12.7
					c3.5,3.5,7.7,5.3,12.7,5.3c5.1,0,9.3-1.8,12.9-5.3c3.5-3.5,5.3-7.7,5.3-12.7v-43.1H444.5z"/>
				<path class="st3" d="M642.8,429v108.6h-18.6v-38.7c0-6.3-2.2-11.6-6.5-15.8c-4.4-4.3-9.6-6.5-15.7-6.5c-6.2,0-11.5,2.2-15.8,6.5
					c-4.3,4.3-6.5,9.6-6.5,15.8c0,6.1,2.2,11.3,6.5,15.7c2.1,2.2,4.5,3.8,7.2,4.9c2.7,1.1,5.6,1.6,8.6,1.6s5.7-0.5,8.2-1.5l6.6,16.6
					c-4.7,2.4-10.2,3.6-16.4,3.6c-5.7,0-10.9-1.1-15.7-3.2c-4.8-2.1-9-5-12.5-8.7c-3.5-3.7-6.2-8.1-8.2-13c-2-4.9-2.9-10.2-2.9-15.8
					c0-5.7,1-11,2.9-16c2-4.9,4.7-9.3,8.2-13c3.5-3.7,7.7-6.6,12.5-8.8c4.8-2.1,10-3.2,15.7-3.2c5,0,9.4,0.8,13.3,2.3
					c3.9,1.5,7.4,3.5,10.4,5.9V429H642.8z"/>
				<path class="st3" d="M733.1,529.9c0,5.6-1.1,10.8-3.2,15.8c-2.1,5-5,9.3-8.8,13c-3.7,3.7-8.1,6.7-13,8.8
					c-5,2.2-10.3,3.3-15.9,3.3c-4.7,0-9.1-0.7-13.2-2.2c-4.1-1.4-7.9-3.5-11.5-6.2l13.5-13.3c3.3,2.1,7,3.1,11.2,3.1
					c6.3,0,11.6-2.2,15.8-6.7c4.4-4.3,6.5-9.5,6.5-15.6v-31.1c0-6-2.2-11.3-6.5-15.8c-4.3-4.3-9.6-6.5-15.8-6.5
					c-6,0-11.3,2.2-15.8,6.5c-4.3,4.5-6.5,9.8-6.5,15.8c0,6.2,2.2,11.5,6.5,15.8c4.6,4.3,9.8,6.5,15.8,6.5c3.1,0,5.9-0.5,8.4-1.5
					l7,17.3c-4.7,1.9-9.7,2.8-15,2.8h-0.3c-5.6,0-10.8-1.1-15.8-3.2c-4.9-2.1-9.3-5-13-8.7c-3.7-3.7-6.7-8.1-8.8-13
					c-2.2-4.9-3.3-10.3-3.3-15.9c0-5.7,0.9-11,2.8-16c1.8-5,4.5-9.3,7.8-13c3.4-3.7,7.4-6.6,12.1-8.8c4.7-2.1,9.8-3.2,15.4-3.2
					c5.4,0,10.1,0.8,14.3,2.4c4.1,1.6,7.7,3.6,10.8,6v-6h18.6V529.9z"/>
				<path class="st3" d="M801.2,508.2h-40.6c1,2.4,2.6,4.5,4.5,6.4c2.2,2.2,4.6,3.8,7.3,4.9c2.7,1.1,5.5,1.6,8.5,1.6
					c4.2,0,8-1,11.3-3l19.4,7.7c-3.7,4.3-8.2,7.7-13.5,10.1c-5.3,2.4-11,3.7-17.2,3.7c-5.7,0-11-1.1-15.9-3.2c-5-2.1-9.3-5-13-8.7
					c-3.7-3.7-6.6-8.1-8.7-13c-2.1-4.9-3.2-10.2-3.2-15.8c0-5.7,1-11,3.2-16c2.1-4.9,5-9.3,8.7-13c3.7-3.7,8.1-6.6,13-8.8
					c5-2.1,10.3-3.2,15.9-3.2c5.7,0,11,1.1,16,3.2c4.9,2.1,9.3,5.1,13,8.8c3.7,3.7,6.6,8.1,8.7,13c2.1,5,3.2,10.3,3.2,16
					c0,3.3-0.4,6.4-1.1,9.3H801.2z M780.9,476.6c-6,0-11.3,2.2-15.8,6.5c-1.9,2-3.5,4.1-4.5,6.5h40.6c-1-2.4-2.5-4.5-4.5-6.5
					C792.4,478.8,787.2,476.6,780.9,476.6"/>
				<polygon class="st3" points="556.2,447.8 556.2,429.2 483.3,429.2 483.3,537.6 501.9,537.6 501.9,519 501.8,519 501.8,492.7 
					546.9,492.7 542.3,474.1 504.6,474.1 504.6,474.1 501.8,474.1 501.8,447.8 				"/>
			</g>
			<g class="st1">
				<defs>
					<rect id="SVGID_3_" x="827" y="178" width="129.9" height="201"/>
				</defs>
				<clipPath id="SVGID_4_">
					<use xlink:href="#SVGID_3_"  style="overflow:visible;"/>
				</clipPath>
				<g class="st5">
					<defs>
						<rect id="SVGID_5_" x="827" y="178" width="354" height="201"/>
					</defs>
					<clipPath id="SVGID_6_">
						<use xlink:href="#SVGID_5_"  style="overflow:visible;"/>
					</clipPath>
				</g>
			</g>
			<g class="st1">
				<defs>
					<polyline id="SVGID_7_" points="115,81.3 956.9,81.3 956.9,676.6 115,676.6 					"/>
				</defs>
				<clipPath id="SVGID_8_">
					<use xlink:href="#SVGID_7_"  style="overflow:visible;"/>
				</clipPath>
			</g>
		</g>
		<path class="st6" d="M636.5,319.2c-5.2-5.2-10.5-10.5-15.6-15.8c-0.2-0.2-0.4-0.4-0.7-0.6c-0.7-0.6-1.3-1-2.1-1.3
			c-0.2-0.1-0.5-0.2-0.8-0.3c-0.8-0.2-1.6-0.3-2.6-0.3c-3.2,0-6.3,0-9.5,0.1c-3,0-5.9,0-8.9,0c-7.4,0-14.9,0-22.3,0
			c-3.1,0-6.1-0.3-8.9-1.9c-5.7-3.3-8.8-10.1-7.6-16.2c1.4-6.6,6.9-11.8,13.9-12c8.2-0.3,16.5-0.5,24.8-0.4c1.4,0,2.7,0,4.1,0.1
			c0.1,0,0.1,0,0.2,0c1.4,0,2.9,0.1,4.3,0.2c1.5,0.1,3.1,0,4.6-0.1c2-0.2,4.1-0.7,5.9-1.6c0.5-0.2,0.9-0.5,1.4-0.7
			c0.5-0.3,1.2-0.8,2-1.4c0.3-0.2,0.7-0.5,1-0.8c0.2-0.1,0.3-0.3,0.5-0.4c0.4-0.4,0.9-0.9,1.2-1.4c0.5-0.8,0.7-1.6,0.3-2.3
			c-0.6-1.1-2.6-0.8-3.6-0.8c-7.3,0-14.5,0-21.8,0h0c-15.3,0-30.5,0-45.7-0.1c-2.9,0-4.8,1-6.4,3.1c-11.8,15-8.8,37.8,6.3,49.5
			c5.1,3.9,11,6,17,7.7c23.5,0,47,0.1,70.5,0.1C638,320.6,637.3,319.9,636.5,319.2"/>
		<path class="st6" d="M550.7,258c22.5-0.2,45-0.1,67.5-0.1c0.5,0,1.3,0.1,2,0c0.4,0,0.7-0.1,1-0.2c0.3-0.1,0.5-0.3,0.7-0.6
			c1.2-2.3-3.5-5.3-5-6.2c-0.4-0.3-0.9-0.5-1.4-0.7c-1.9-0.9-3.9-1.4-5.9-1.6c-1.5-0.2-3.1-0.2-4.6-0.1c-1.4,0.1-2.9,0.1-4.3,0.2
			c-0.1,0-0.2,0-0.2,0c-1.4,0-2.7,0.1-4.1,0.1c-8.3,0.1-16.5-0.1-24.8-0.4c-7-0.2-12.5-5.4-13.9-12c-1.3-6,1.9-12.9,7.6-16.2
			c2.7-1.6,5.8-1.9,8.9-1.9c7.4,0,14.9,0,22.3,0c3,0,5.9,0,8.9,0c3.2,0,6.3,0,9.5,0.1c0.9,0,1.8-0.1,2.6-0.3
			c0.3-0.1,0.5-0.2,0.8-0.3c0.5-0.2,1-0.5,1.4-0.8c0.2-0.2,0.4-0.3,0.7-0.5c0.2-0.2,0.4-0.4,0.7-0.6c2.6-2.7,5.2-5.3,7.8-7.9
			c2.6-2.6,5.2-5.2,7.8-7.9c0.8-0.7,1.5-1.4,1.6-2.5c-13.9,0-27.8,0-41.7,0.1c-9.6,0-19.2,0-28.8,0c-6.1,1.8-11.9,3.8-17,7.7
			c-15.2,11.7-18.2,34.5-6.3,49.5C545.9,256.9,547.8,258,550.7,258"/>
		<path class="st7" d="M501.2,321.6c6-1.8,11.9-3.8,17-7.7c15.2-11.7,18.2-34.5,6.4-49.5c-1.7-2.1-3.5-3.1-6.5-3.1
			c-22.5,0.1-45,0.1-67.5,0.1c-1.1,0-3.1-0.3-3.6,0.8c-1.2,2.3,3.5,5.3,5,6.2c3.6,2.1,7.8,2.6,11.9,2.4c11.1-0.5,22.2-0.2,33.4,0.2
			c7,0.2,12.5,5.4,13.9,12c1.3,6.1-1.9,12.9-7.6,16.2c-2.7,1.6-5.8,1.9-8.9,1.9c-13.6,0-27.1,0.1-40.7-0.1c-2.5,0-4.3,0.7-6.1,2.5
			c-5.1,5.3-10.4,10.6-15.6,15.8c-0.7,0.7-1.4,1.4-1.6,2.5C454.1,321.7,477.7,321.7,501.2,321.6"/>
		<path class="st7" d="M501.2,197.6c6,1.8,11.9,3.8,17,7.7c15.2,11.7,18.2,34.5,6.4,49.5c-1.7,2.1-3.5,3.1-6.5,3.1
			c-22.5-0.2-45-0.1-67.5-0.1c-1.1,0-3.1,0.3-3.6-0.8c-1.2-2.3,3.5-5.3,5-6.2c3.6-2.1,7.8-2.6,11.9-2.4c11.1,0.5,22.2,0.2,33.4-0.2
			c7-0.2,12.5-5.4,13.9-12c1.3-6-1.9-12.9-7.6-16.2c-2.7-1.6-5.8-1.9-8.9-1.9c-13.6,0-27.1-0.1-40.7,0.1c-2.5,0-4.3-0.7-6.1-2.5
			c-5.1-5.3-10.4-10.6-15.6-15.8c-0.7-0.7-1.4-1.4-1.6-2.5C454.1,197.5,477.7,197.5,501.2,197.6"/>
	</g>
	<g id="XMLID_5_">
		<path id="XMLID_38_" class="st3 dot" d="M533.8,389.4c-71.8,0-129.9-58.2-129.9-129.9S462,129.6,533.8,129.6s129.9,58.2,129.9,129.9
			S605.5,389.4,533.8,389.4z"/>
	</g>
	<path class="st4" id="XMLID_15_" d="M12.65,0c0,7,-4.8,12.7,-12.7,12.7c-7.9,0,-12.6,-5.7,-12.6,-12.7c0,-7,4.8,-12.7,12.6,-12.7c7.7,0,12.7,5.7,12.7,12.7"/>
		<animateMotion 
           xlink:href="#XMLID_15_"
           dur="10s"
           begin="0s"
           repeatCount="indefinite">
            <mpath xlink:href="#XMLID_38_"/>
      </animateMotion>
</g>
</svg>
