<?xml version="1.0" encoding="utf-8"?>
<!-- Generator: Adobe Illustrator 19.0.0, SVG Export Plug-In . SVG Version: 6.00 Build 0)  -->
<svg version="1.1" xmlns="http://www.w3.org/2000/svg" xmlns:xlink="http://www.w3.org/1999/xlink" x="0px" y="0px"
	 viewBox="0 0 400 400" style="enable-background:new 0 0 400 400;" xml:space="preserve">
<style type="text/css">
	.st0{clip-path:url(#XMLID_19_);}
	.st1{fill:none;stroke:#5D5D5D;stroke-width:3;stroke-miterlimit:10;}
	.st2{fill:#2CACE2;}
	.st3{display:none;clip-path:url(#XMLID_19_);}
	.st4{display:inline;fill:none;stroke:#5D5D5D;stroke-width:3;stroke-miterlimit:10;}
	.st5{display:inline;fill:#2CACE2;}
	.st6{display:inline;}
	.st7{display:none;}
	.st8{display:inline;fill:none;stroke:#000000;stroke-width:3;stroke-miterlimit:10;}
</style>
<g id="Layer_1">
	<g id="XMLID_2_">
		<defs>
			<path id="XMLID_90_" d="M199.4,331.3c-72.7,0-131.8-59.1-131.8-131.8c0-72.7,59.1-131.8,131.8-131.8c28.2,0,55.1,8.8,77.8,25.4
				l-1.2,1.6c-22.3-16.4-12.7-8.1,7,11.5c48.6,48.6,37.3,38.1,20.4,15.5l1.6-1.2c17.2,22.9,26.2,50.2,26.2,78.9
				C331.2,272.2,272.1,331.3,199.4,331.3"/>
		</defs>
		<clipPath id="XMLID_19_">
			<use xlink:href="#XMLID_90_"  style="overflow:visible;"/>
		</clipPath>
		<g id="Web" class="st0">
			<g id="XMLID_60_">
				<g id="XMLID_61_">
					<rect id="XMLID_34_" x="186" y="149.5" class="st1" width="78.6" height="5.8"/>
				</g>
			</g>
			<g id="XMLID_57_">
				<g id="XMLID_58_">
					<rect id="XMLID_33_" x="186" y="161.1" class="st1" width="49.5" height="5.8"/>
				</g>
			</g>
			<g id="XMLID_54_">
				<g id="XMLID_55_">
					<rect id="XMLID_32_" x="186" y="172.8" class="st1" width="49.5" height="5.8"/>
				</g>
			</g>
			<g id="XMLID_51_">
				<g id="XMLID_52_">
					<rect id="XMLID_31_" x="209.2" y="137.8" class="st1" width="55.3" height="5.8"/>
				</g>
			</g>
			<g id="XMLID_48_">
				<g id="XMLID_49_">
					<rect id="XMLID_30_" x="197.6" y="137.8" class="st1" width="5.8" height="5.8"/>
				</g>
			</g>
			<g id="XMLID_45_">
				<g id="XMLID_46_">
					<rect id="XMLID_29_" x="191.8" y="239.7" class="st1" width="5.8" height="5.8"/>
				</g>
			</g>
			<g id="XMLID_42_">
				<g id="XMLID_43_">
					<path id="XMLID_27_" class="st1" d="M156,142.8l-4.1-4.1l-5.8,5.8c-1.1,1.1-1.1,3,0,4.1l5.8,5.8l4.1-4.1l-3.8-3.8L156,142.8z"
						/>
				</g>
			</g>
			<g id="XMLID_39_">
				<g id="XMLID_40_">
					<path id="XMLID_26_" class="st1" d="M179.3,144.5l-5.8-5.8l-4.1,4.1l3.8,3.8l-3.8,3.8l4.1,4.1l5.8-5.8
						C180.4,147.5,180.4,145.7,179.3,144.5z"/>
				</g>
			</g>
			<g id="XMLID_36_">
				<g id="XMLID_37_">
					
						<rect id="XMLID_25_" x="153.5" y="143.7" transform="matrix(-0.3165 0.9486 -0.9486 -0.3165 353.1826 38.6631)" class="st1" width="18.4" height="5.8"/>
				</g>
			</g>
			<g id="XMLID_22_">
				<g id="XMLID_23_">
					<polygon id="XMLID_24_" class="st2" points="258.7,213.5 258.7,190.2 252.9,190.2 252.9,213.5 247.1,213.5 247.1,184.4 
						241.3,184.4 241.3,213.5 235.4,213.5 235.4,199 229.6,199 229.6,213.5 223.8,213.5 223.8,196.1 218,196.1 218,213.5 
						212.1,213.5 212.1,201.9 206.3,201.9 206.3,213.5 200.5,213.5 200.5,219.3 264.5,219.3 264.5,213.5 					"/>
				</g>
			</g>
			<g id="XMLID_3_">
				<g id="XMLID_13_">
					<path id="XMLID_14_" class="st1" d="M261.6,123.3H127.7c-9.6,0-17.5,7.8-17.5,17.5v57.1v0V231v8.7c0,9.6,7.8,17.5,17.5,17.5h36
						l-11.6,23.3h-15.7c-4.8,0-8.7,3.9-8.7,8.7s3.9,8.7,8.7,8.7h116.4c4.8,0,8.7-3.9,8.7-8.7s-3.9-8.7-8.7-8.7h-15.7l-11.6-23.3h36
						c9.6,0,17.5-7.8,17.5-17.5v-99C279.1,131.1,271.3,123.3,261.6,123.3z M116.1,164.2l6.6,7.9c0.6,0.7,1.4,1,2.2,1h8.9
						c0.9,0,1.7-0.4,2.2-1l6.6-7.9l6.5,2.1l0.7,10.3c0.1,0.9,0.5,1.6,1.2,2.2l7.2,5.2c0.7,0.5,1.6,0.7,2.4,0.5l10-2.5l4,5.6
						l-5.4,8.7c-0.5,0.7-0.6,1.6-0.3,2.4l2.8,8.5c0.3,0.8,0.9,1.5,1.7,1.8l9.5,3.9v6.9l-9.5,3.9c-0.8,0.3-1.4,1-1.7,1.8l-0.9,2.7
						h-16.8c6.5-13.7,0.7-30-12.9-36.5c-8-3.8-17.4-3.5-25.2,0.8V164.2z M116.1,199.3c9.4-7.3,23-5.7,30.3,3.7
						c5.7,7.3,6.1,17.3,1.1,25.1h-31.4V199.3z M252.9,286.3c1.6,0,2.9,1.3,2.9,2.9c0,1.6-1.3,2.9-2.9,2.9H136.5
						c-1.6,0-2.9-1.3-2.9-2.9c0-1.6,1.3-2.9,2.9-2.9H252.9z M230.7,280.5h-72.1l11.6-23.3h48.8L230.7,280.5z M273.3,239.7
						c0,6.4-5.2,11.6-11.6,11.6H127.7c-6.4,0-11.6-5.2-11.6-11.6v-5.8h33h0h124.2V239.7z M273.3,228.1H178l9.1-3.7
						c1.1-0.4,1.8-1.5,1.8-2.7v-10.8c0-1.2-0.7-2.3-1.8-2.7l-10.1-4.1l-1.9-5.9l5.8-9.3c0.6-1,0.6-2.3-0.1-3.2l-6.3-8.7
						c-0.7-1-1.9-1.4-3.1-1.1l-10.6,2.6l-5-3.6l-0.8-10.9c-0.1-1.2-0.9-2.2-2-2.6l-10.3-3.3c-1.1-0.4-2.4,0-3.1,0.9l-7,8.3h-6.2
						l-7-8.3c-0.8-0.9-2-1.3-3.1-0.9l-0.1,0v-17.4c0-6.4,5.2-11.6,11.6-11.6h133.9c6.4,0,11.6,5.2,11.6,11.6V228.1z"/>
				</g>
			</g>
		</g>
		<g id="Traditional" class="st3">
			<path id="XMLID_207_" class="st4" d="M280.3,136.5h-51.6c0-7.1-5.8-12.9-12.9-12.9h-8.4l20.3-20.3l-4.6-4.6l-23.5,23.5
				l-23.5-23.5l-4.6,4.6l20.3,20.3h-8.4c-7.1,0-12.9,5.8-12.9,12.9h-51.6c-10.7,0-19.4,8.7-19.4,19.4v96.8c0,9.7,7.2,17.9,16.8,19.2
				l5.8,23.5c0.4,1.5,1.7,2.5,3.2,2.5h12.9c1.5,0,2.9-1,3.2-2.5l5.7-23.4H252l5.7,23.4c0.4,1.5,1.7,2.5,3.2,2.5h12.9
				c1.5,0,2.9-1,3.2-2.5l5.9-23.5c9.6-1.3,16.7-9.5,16.7-19.2v-96.8C299.7,145.2,291,136.5,280.3,136.5z M183.6,130.1h32.3
				c3.6,0,6.5,2.9,6.5,6.5h-45.2C177.1,132.9,180,130.1,183.6,130.1z M135.9,291.4H128l-4.8-19.4h17.5L135.9,291.4z M271.4,291.4
				h-7.9l-4.8-19.4h17.5L271.4,291.4z M293.2,252.6c0,7.1-5.8,12.9-12.9,12.9H119.1c-7.1,0-12.9-5.8-12.9-12.9v-96.8
				c0-7.1,5.8-12.9,12.9-12.9h161.3c7.1,0,12.9,5.8,12.9,12.9V252.6z"/>
			<path id="XMLID_204_" class="st4" d="M248.1,149.4h-129c-3.6,0-6.5,2.9-6.5,6.5v96.8c0,3.6,2.9,6.5,6.5,6.5h129
				c3.6,0,6.5-2.9,6.5-6.5v-96.8C254.5,152.3,251.7,149.4,248.1,149.4z M119.1,252.6v-96.8h129v96.8H119.1z"/>
			<path id="XMLID_200_" class="st4" d="M273.9,149.4c-7.1,0-12.9,5.8-12.9,12.9s5.8,12.9,12.9,12.9c7.1,0,12.9-5.8,12.9-12.9
				S281,149.4,273.9,149.4z M280.3,162.3c0,0.6-0.1,1.1-0.2,1.6l-7.9-7.9c0.5-0.1,1.1-0.2,1.6-0.2
				C277.5,155.9,280.3,158.8,280.3,162.3z M267.4,162.3c0-0.6,0.1-1.1,0.2-1.6l7.9,7.9c-0.5,0.1-1.1,0.2-1.6,0.2
				C270.3,168.8,267.4,165.9,267.4,162.3z"/>
			<path id="XMLID_196_" class="st4" d="M273.9,181.7c-7.1,0-12.9,5.8-12.9,12.9c0,7.1,5.8,12.9,12.9,12.9c7.1,0,12.9-5.8,12.9-12.9
				C286.8,187.5,281,181.7,273.9,181.7z M273.9,188.1c0.6,0,1.1,0.1,1.6,0.2l-7.9,7.9c-0.1-0.5-0.2-1.1-0.2-1.6
				C267.4,191,270.3,188.1,273.9,188.1z M273.9,201c-0.6,0-1.1-0.1-1.6-0.2l7.9-7.9c0.1,0.5,0.2,1.1,0.2,1.6
				C280.3,198.1,277.5,201,273.9,201z"/>
			<path id="XMLID_193_" class="st4" d="M283.6,213.9h-19.4c-1.8,0-3.2,1.4-3.2,3.2v12.9c0,1.8,1.4,3.2,3.2,3.2h19.4
				c1.8,0,3.2-1.4,3.2-3.2v-12.9C286.8,215.4,285.4,213.9,283.6,213.9z M280.3,226.8h-12.9v-6.5h12.9V226.8z"/>
			<path id="XMLID_147_" class="st4" d="M283.6,239.7h-19.4c-1.8,0-3.2,1.4-3.2,3.2v12.9c0,1.8,1.4,3.2,3.2,3.2h19.4
				c1.8,0,3.2-1.4,3.2-3.2V243C286.8,241.2,285.4,239.7,283.6,239.7z M280.3,252.6h-12.9v-6.5h12.9V252.6z"/>
			<path id="XMLID_96_" class="st5" d="M126.4,224.5l45.2-45.2l4.6,4.6L131,229.1L126.4,224.5z"/>
			<path id="XMLID_91_" class="st5" d="M158.7,224.5l45.2-45.2l4.6,4.6l-45.2,45.2L158.7,224.5z"/>
			<path id="XMLID_35_" class="st5" d="M191,224.5l45.2-45.2l4.6,4.6l-45.2,45.2L191,224.5z"/>
		</g>
		<g id="Project" class="st3">
			<path id="XMLID_104_" class="st4" d="M278.3,133.2c3,0,5.5-2.5,5.5-5.5v-6.1c0-3-2.5-5.5-5.5-5.5H118.6c-3,0-5.5,2.5-5.5,5.5v6.1
				c0,3,2.5,5.5,5.5,5.5h0.4v15.6c0,1.5,1.2,2.7,2.7,2.7c1.5,0,2.7-1.2,2.7-2.7v-15.6h148.3v106.9H124.3v-80.6
				c0-1.5-1.2-2.7-2.7-2.7s-2.7,1.2-2.7,2.7v80.6h-0.4c-3,0-5.5,2.5-5.5,5.5v6.1c0,3,2.5,5.5,5.5,5.5h17.2l-9.8,34.2
				c-0.5,1.7-0.2,3.5,0.9,4.9c1.1,1.4,2.7,2.2,4.5,2.2H143c2.5,0,4.7-1.7,5.4-4.1l2.2-7.7h36.2v6.2c0,3.1,2.5,5.6,5.6,5.6h11.8
				c3.1,0,5.6-2.5,5.6-5.6v-6.2h36.2l2.2,7.7c0.7,2.4,2.9,4.1,5.4,4.1h11.6c1.8,0,3.4-0.8,4.5-2.2c1.1-1.4,1.4-3.2,0.9-4.9
				l-9.8-34.2h17.3c3,0,5.5-2.5,5.5-5.5v-6.1c0-3-2.5-5.5-5.5-5.5h-0.4V133.2H278.3z M143,293.3h-11.6c0,0-0.1,0-0.2-0.1
				c-0.1-0.1-0.1-0.2,0-0.2l10.2-35.6h12.2l-10.2,35.7C143.3,293.2,143.1,293.3,143,293.3L143,293.3z M204.6,293
				c0,0.2-0.1,0.3-0.3,0.3h-11.8c-0.2,0-0.3-0.1-0.3-0.3v-6.2h12.4V293z M152.2,281.4l1.9-6.5h88.8l1.9,6.5H152.2z M204.6,257.3
				v12.3h-12.4v-12.3H204.6z M265.6,293.1c-0.1,0.1-0.2,0.1-0.2,0.1h-11.6c-0.1,0-0.2-0.1-0.3-0.2l-10.2-35.7h12.2l10.2,35.6
				C265.7,292.9,265.7,293,265.6,293.1L265.6,293.1z M241.3,269.6H210v-12.4h27.8L241.3,269.6z M278.5,245.6v6.1
				c0,0.1-0.1,0.2-0.2,0.2H175c-1.5,0-2.7,1.2-2.7,2.7c0,1.5,1.2,2.7,2.7,2.7h11.9v12.4h-31.3l3.5-12.4h5.2c1.5,0,2.7-1.2,2.7-2.7
				c0-1.5-1.2-2.7-2.7-2.7h-45.7c-0.1,0-0.2-0.1-0.2-0.2v-6.1c0-0.1,0.1-0.2,0.2-0.2h159.7C278.4,245.4,278.5,245.5,278.5,245.6
				L278.5,245.6z M118.6,127.8c-0.1,0-0.2-0.1-0.2-0.2v-6.1c0-0.1,0.1-0.2,0.2-0.2h159.7c0.1,0,0.2,0.1,0.2,0.2v6.1
				c0,0.1-0.1,0.2-0.2,0.2H118.6z"/>
			<path id="XMLID_101_" class="st5" d="M148.5,225c0,4.7,3.8,8.6,8.6,8.6s8.6-3.8,8.6-8.6c0-4.7-3.8-8.6-8.6-8.6
				C152.3,216.5,148.5,220.3,148.5,225z M157.1,221.8c1.8,0,3.2,1.5,3.2,3.2c0,1.8-1.5,3.2-3.2,3.2c-1.8,0-3.2-1.5-3.2-3.2
				C153.8,223.3,155.3,221.8,157.1,221.8z"/>
			<path id="XMLID_98_" class="st4" d="M239.8,157c4.7,0,8.6-3.8,8.6-8.6c0-4.7-3.8-8.6-8.6-8.6s-8.6,3.8-8.6,8.6
				C231.2,153.2,235,157,239.8,157z M239.8,145.2c1.8,0,3.2,1.5,3.2,3.2c0,1.8-1.5,3.2-3.2,3.2s-3.2-1.5-3.2-3.2
				C236.5,146.7,238,145.2,239.8,145.2z"/>
			<path id="XMLID_78_" class="st4" d="M154.4,207.3c0,1.5,1.2,2.7,2.7,2.7s2.7-1.2,2.7-2.7v-5.9c0-1.5-1.2-2.7-2.7-2.7
				s-2.7,1.2-2.7,2.7V207.3z"/>
			<path id="XMLID_76_" class="st4" d="M157.1,192.3c1.5,0,2.7-1.2,2.7-2.7v-5.9c0-1.5-1.2-2.7-2.7-2.7s-2.7,1.2-2.7,2.7v5.9
				C154.4,191.1,155.6,192.3,157.1,192.3z"/>
			<path id="XMLID_75_" class="st4" d="M149.3,173.8c0.5,0.5,1.2,0.8,1.9,0.8c0.7,0,1.4-0.3,1.9-0.8l4-4l4,4
				c0.5,0.5,1.2,0.8,1.9,0.8c0.7,0,1.4-0.3,1.9-0.8c1-1,1-2.7,0-3.8l-4-4l4-4c1-1,1-2.7,0-3.8c-1-1-2.7-1-3.8,0l-4,4l-4-4
				c-1-1-2.7-1-3.8,0c-1,1-1,2.7,0,3.8l4,4l-4,4C148.2,171,148.2,172.7,149.3,173.8z"/>
			<path id="XMLID_74_" class="st4" d="M200.3,196.6c-1-1-2.7-1-3.8,0l-4,4l-4-4c-1-1-2.7-1-3.8,0c-1,1-1,2.7,0,3.8l4,4l-4,4
				c-1,1-1,2.7,0,3.8c0.5,0.5,1.2,0.8,1.9,0.8c0.7,0,1.4-0.3,1.9-0.8l4-4l4,4c0.5,0.5,1.2,0.8,1.9,0.8c0.7,0,1.4-0.3,1.9-0.8
				c1-1,1-2.7,0-3.8l-4-4l4-4C201.4,199.3,201.4,197.6,200.3,196.6L200.3,196.6z"/>
			<path id="XMLID_72_" class="st5" d="M247.6,196.6c-1-1-2.7-1-3.8,0l-4,4l-4-4c-1-1-2.7-1-3.8,0c-1,1-1,2.7,0,3.8l4,4l-4,4
				c-1,1-1,2.7,0,3.8c0.5,0.5,1.2,0.8,1.9,0.8s1.4-0.3,1.9-0.8l4-4l4,4c0.5,0.5,1.2,0.8,1.9,0.8c0.7,0,1.4-0.3,1.9-0.8
				c1-1,1-2.7,0-3.8l-4-4l4-4C248.6,199.3,248.6,197.6,247.6,196.6L247.6,196.6z"/>
			<path id="XMLID_71_" class="st4" d="M168.9,181c-1.5,0-2.7,1.2-2.7,2.7c0,1.5,1.2,2.7,2.7,2.7h70.9c1.5,0,2.7-1.2,2.7-2.7v-11.4
				l1.3,1.3c0.5,0.5,1.2,0.8,1.9,0.8s1.4-0.3,1.9-0.8c1-1,1-2.7,0-3.8l-5.9-5.9c-1-1-2.7-1-3.8,0l-5.9,5.9c-1,1-1,2.7,0,3.8
				c1,1,2.7,1,3.8,0l1.3-1.3v8.7L168.9,181L168.9,181z"/>
		</g>
		<g id="Mobile" class="st3">
			<path id="XMLID_146_" class="st4" d="M231.9,276.9h11v2.7h-11V276.9z"/>
			<circle id="XMLID_145_" class="st4" cx="233.1" cy="133" r="3.2"/>
			<circle id="XMLID_144_" class="st4" cx="245.8" cy="133" r="3.2"/>
			<path id="XMLID_143_" class="st4" d="M198.3,129.8h25.4v6.3h-25.4V129.8z"/>
			<path id="XMLID_142_" class="st4" d="M198.3,288.3h25.4v6.3h-25.4V288.3z"/>
			<path id="XMLID_136_" class="st4" d="M293.4,288.3h-9.5v-92.5c0-12.7-9.6-23.3-22.2-24.7v-44.5c0-5.3-4.3-9.5-9.5-9.5h-82.4
				c-5.3,0-9.5,4.3-9.5,9.5v28.5h-50.7c-1.8,0-3.2,1.4-3.2,3.2v107.8c0,1.8,1.4,3.2,3.2,3.2h50.7v28.5c0,5.3,4.3,9.5,9.5,9.5h82.4
				c5.3,0,9.5-4.3,9.5-9.5v-3.2h28.5v12.7h6.3v-15.9C296.5,289.7,295.1,288.3,293.4,288.3z M169.7,123.5h82.4c1.8,0,3.2,1.4,3.2,3.2
				V143c-1-0.4-2.1-0.5-3.2-0.5h-82.4c-1.1,0-2.2,0.2-3.2,0.5v-16.4C166.6,124.9,168,123.5,169.7,123.5z M223.6,269.3V263h-111
				V161.5h111v-6.3h-57.1V152c0-1.8,1.4-3.2,3.2-3.2h82.4c1.8,0,3.2,1.4,3.2,3.2v40.1c-5.9-4.4-14.2-3.2-18.6,2.7
				c-3.9,5.3-3.4,12.6,1.3,17.3l16,16l-2,2c-11.1,11.1-11.1,29.2,0,40.3l3.1,3.1c-0.5,1.2-1.6,2.1-3,2.1h-82.4
				c-1.8,0-3.2-1.4-3.2-3.2v-3.2H223.6z M255.3,297.8c0,1.8-1.4,3.2-3.2,3.2h-82.4c-1.8,0-3.2-1.4-3.2-3.2v-16.4
				c1,0.4,2.1,0.5,3.2,0.5h82.4c1.1,0,2.2-0.2,3.2-0.5V297.8z M261.7,288.3v-15.9c0-0.8-0.3-1.6-0.9-2.2l-4.3-4.3
				c-8.7-8.7-8.7-22.7,0-31.4l4.3-4.3c1.2-1.2,1.2-3.2,0-4.5l-18.2-18.2c-2.7-2.7-2.7-7.1,0-9.8c2.7-2.7,7.1-2.7,9.8,0l0,0
				l10.3,10.3c1.2,1.2,3.2,1.2,4.5,0c1.2-1.2,1.2-3.2,0-4.5l-5.4-5.4v-20.7c9.1,1.3,15.8,9.1,15.9,18.3v92.5H261.7z"/>
			<path id="XMLID_135_" class="st5" d="M214.1,171h22.2v6.3h-22.2V171z"/>
			<path id="XMLID_134_" class="st5" d="M242.6,171h6.3v6.3h-6.3V171z"/>
			<path id="XMLID_133_" class="st5" d="M214.1,183.7h19v6.3h-19V183.7z"/>
			<path id="XMLID_132_" class="st5" d="M214.1,196.4h12.7v6.3h-12.7V196.4z"/>
			<path id="XMLID_131_" class="st5" d="M214.1,209.1H230v6.3h-15.9V209.1z"/>
			<path id="XMLID_130_" class="st5" d="M214.1,221.7h25.4v6.3h-25.4V221.7z"/>
			<path id="XMLID_129_" class="st5" d="M214.1,234.4h19v6.3h-19V234.4z"/>
			<path id="XMLID_128_" class="st5" d="M214.1,247.1h12.7v6.3h-12.7V247.1z"/>
			<path id="XMLID_127_" class="st5" d="M233.1,247.1h6.3v6.3h-6.3V247.1z"/>
			<path id="XMLID_124_" class="st4" d="M122.1,193.2h19.1c1.8,0,3.2-1.4,3.2-3.2V171c0-1.8-1.4-3.2-3.2-3.2h-19.1
				c-1.8,0-3.2,1.4-3.2,3.2V190C119,191.8,120.4,193.2,122.1,193.2z M125.3,174.2H138v12.7h-12.7V174.2z"/>
			<path id="XMLID_121_" class="st4" d="M153.8,193.2h19.1c1.8,0,3.2-1.4,3.2-3.2V171c0-1.8-1.4-3.2-3.2-3.2h-19.1
				c-1.8,0-3.2,1.4-3.2,3.2V190C150.7,191.8,152.1,193.2,153.8,193.2z M157,174.2h12.7v12.7H157V174.2z"/>
			<path id="XMLID_118_" class="st4" d="M204.6,167.8h-19.1c-1.8,0-3.2,1.4-3.2,3.2V190c0,1.8,1.4,3.2,3.2,3.2h19.1
				c1.8,0,3.2-1.4,3.2-3.2V171C207.8,169.2,206.4,167.8,204.6,167.8z M201.5,186.9h-12.7v-12.7h12.7V186.9z"/>
			<path id="XMLID_115_" class="st4" d="M204.6,199.5h-19.1c-1.8,0-3.2,1.4-3.2,3.2v19.1c0,1.8,1.4,3.2,3.2,3.2h19.1
				c1.8,0,3.2-1.4,3.2-3.2v-19.1C207.8,200.9,206.4,199.5,204.6,199.5z M201.5,218.6h-12.7v-12.7h12.7V218.6z"/>
			<path id="XMLID_112_" class="st4" d="M153.8,224.9h19.1c1.8,0,3.2-1.4,3.2-3.2v-19.1c0-1.8-1.4-3.2-3.2-3.2h-19.1
				c-1.8,0-3.2,1.4-3.2,3.2v19.1C150.7,223.5,152.1,224.9,153.8,224.9z M157,205.9h12.7v12.7H157V205.9z"/>
			<path id="XMLID_109_" class="st4" d="M141.2,199.5h-19.1c-1.8,0-3.2,1.4-3.2,3.2v19.1c0,1.8,1.4,3.2,3.2,3.2h19.1
				c1.8,0,3.2-1.4,3.2-3.2v-19.1C144.4,200.9,143,199.5,141.2,199.5z M138.1,218.6h-12.7v-12.7h12.7V218.6z"/>
			<path id="XMLID_106_" class="st4" d="M141.2,231.2h-19.1c-1.8,0-3.2,1.4-3.2,3.2v19.1c0,1.8,1.4,3.2,3.2,3.2h19.1
				c1.8,0,3.2-1.4,3.2-3.2v-19.1C144.4,232.6,143,231.2,141.2,231.2z M138.1,250.3h-12.7v-12.7h12.7V250.3z"/>
			<path id="XMLID_102_" class="st4" d="M172.9,231.2h-19.1c-1.8,0-3.2,1.4-3.2,3.2v19.1c0,1.8,1.4,3.2,3.2,3.2h19.1
				c1.8,0,3.2-1.4,3.2-3.2v-19.1C176.1,232.6,174.7,231.2,172.9,231.2z M169.8,250.3H157v-12.7h12.7V250.3z"/>
			<path id="XMLID_97_" class="st4" d="M204.6,231.2h-19.1c-1.8,0-3.2,1.4-3.2,3.2v19.1c0,1.8,1.4,3.2,3.2,3.2h19.1
				c1.8,0,3.2-1.4,3.2-3.2v-19.1C207.8,232.6,206.4,231.2,204.6,231.2z M201.4,250.3h-12.7v-12.7h12.7V250.3z"/>
		</g>
		<g id="sOCIAL_MEDIA" class="st3">
			<path id="XMLID_173_" class="st4" d="M207.5,285.4h-6.3v-30.8c0-1.7-1.4-3.1-3.1-3.1c-1.7,0-3.1,1.4-3.1,3.1v30.8h-81.6v-62.8
				h26.1c1.7,0,3.1-1.4,3.1-3.1s-1.4-3.1-3.1-3.1h-29.3c-1.7,0-3.1,1.4-3.1,3.1v65.9h-6.3c-1.7,0-3.1,1.4-3.1,3.1v6.3
				c0,8.7,7,15.7,15.7,15.7h81.6c8.7,0,15.7-7,15.7-15.7v-6.3C210.6,286.8,209.2,285.4,207.5,285.4z M204.4,294.8
				c0,5.2-4.2,9.4-9.4,9.4h-6.3v-3.1c0-1.7-1.4-3.1-3.1-3.1c-1.7,0-3.1,1.4-3.1,3.1v3.1h-56.5v-3.1c0-1.7-1.4-3.1-3.1-3.1
				s-3.1,1.4-3.1,3.1v3.1h-6.3c-5.2,0-9.4-4.2-9.4-9.4v-3.1h100.5V294.8z"/>
			<path id="XMLID_172_" class="st4" d="M260.9,140.9h6.3c1.7,0,3.1-1.4,3.1-3.1c0-1.7-1.4-3.1-3.1-3.1h-6.3c-5.2,0-9.4,4.2-9.4,9.4
				v3.1h-3.1c-1.7,0-3.1,1.4-3.1,3.1s1.4,3.1,3.1,3.1h3.1v9.4c0,1.7,1.4,3.1,3.1,3.1c1.7,0,3.1-1.4,3.1-3.1v-9.4h3.1
				c1.7,0,3.1-1.4,3.1-3.1s-1.4-3.1-3.1-3.1h-3.1v-3.1C257.7,142.3,259.1,140.9,260.9,140.9z"/>
			<path id="XMLID_171_" class="st4" d="M276.6,122.1h-37.7c-5.2,0-9.4,4.2-9.4,9.4v6.3c0,1.7,1.4,3.1,3.1,3.1s3.1-1.4,3.1-3.1v-6.3
				c0-1.7,1.4-3.1,3.1-3.1h37.7c1.7,0,3.1,1.4,3.1,3.1v37.7c0,1.7-1.4,3.1-3.1,3.1h-37.7c-1.7,0-3.1-1.4-3.1-3.1v-18.8
				c0-1.7-1.4-3.1-3.1-3.1s-3.1,1.4-3.1,3.1v18.8c0,5.2,4.2,9.4,9.4,9.4h37.7c5.2,0,9.4-4.2,9.4-9.4v-37.7
				C286,126.3,281.8,122.1,276.6,122.1z"/>
			<path id="XMLID_168_" class="st4" d="M245.2,247.7c0,6.9,5.6,12.6,12.6,12.6c6.9,0,12.6-5.6,12.6-12.6s-5.6-12.6-12.6-12.6
				C250.8,235.1,245.2,240.8,245.2,247.7z M264,247.7c0,3.5-2.8,6.3-6.3,6.3c-3.5,0-6.3-2.8-6.3-6.3c0-3.5,2.8-6.3,6.3-6.3
				C261.2,241.4,264,244.2,264,247.7z"/>
			<path id="XMLID_167_" class="st4" d="M276.6,219.4h-37.7c-5.2,0-9.4,4.2-9.4,9.4v37.7c0,5.2,4.2,9.4,9.4,9.4h37.7
				c5.2,0,9.4-4.2,9.4-9.4v-6.3c0-1.7-1.4-3.1-3.1-3.1c-1.7,0-3.1,1.4-3.1,3.1v6.3c0,1.7-1.4,3.1-3.1,3.1h-37.7
				c-1.7,0-3.1-1.4-3.1-3.1v-37.7c0-1.7,1.4-3.1,3.1-3.1h37.7c1.7,0,3.1,1.4,3.1,3.1v18.8c0,1.7,1.4,3.1,3.1,3.1
				c1.7,0,3.1-1.4,3.1-3.1v-18.8C286,223.6,281.8,219.4,276.6,219.4z"/>
			<path id="XMLID_164_" class="st4" d="M168.2,159.3c0.5,0.3,1.1,0.5,1.7,0.5c0.5,0,1-0.1,1.4-0.3l18.8-9.4
				c1.5-0.8,2.2-2.7,1.4-4.2c-0.3-0.6-0.8-1.1-1.4-1.4l-18.8-9.4c-1.5-0.8-3.4-0.2-4.2,1.4c-0.2,0.4-0.3,0.9-0.3,1.4v18.8
				C166.7,157.7,167.2,158.7,168.2,159.3z M173,142.9l8.7,4.3l-8.7,4.3V142.9z"/>
			<path id="XMLID_161_" class="st4" d="M176.1,175.5c15.6,0,28.3-12.7,28.3-28.3S191.7,119,176.1,119s-28.3,12.7-28.3,28.3
				S160.5,175.5,176.1,175.5z M176.1,125.2c12.1,0,22,9.8,22,22c0,12.1-9.8,22-22,22c-12.1,0-22-9.8-22-22
				C154.1,135.1,164,125.2,176.1,125.2z"/>
			<path id="XMLID_160_" class="st5" d="M207.5,188c1,0,1.9-0.5,2.5-1.3l9.4-12.6c1-1.4,0.8-3.4-0.6-4.4c-1.4-1-3.4-0.8-4.4,0.6
				L205,183c-1,1.4-0.8,3.4,0.6,4.4C206.2,187.8,206.8,188,207.5,188z"/>
			<path id="XMLID_159_" class="st5" d="M214.4,199.3c0.6,0.8,1.5,1.3,2.5,1.3c0.7,0,1.3-0.2,1.9-0.6l12.6-9.4c1.4-1,1.7-3,0.6-4.4
				s-3-1.7-4.4-0.6l-12.6,9.4C213.7,196,213.4,197.9,214.4,199.3L214.4,199.3z"/>
			<path id="XMLID_158_" class="st5" d="M245.2,206.2c-0.3-1.7-1.9-2.8-3.6-2.5c0,0-0.1,0-0.1,0l-15.7,3.1c-1.7,0.2-3,1.7-2.8,3.5
				c0.2,1.7,1.7,3,3.5,2.8h0.6l15.7-3.1c1.7-0.3,2.8-1.9,2.5-3.6C245.2,206.3,245.2,206.3,245.2,206.2z"/>
			<path id="XMLID_155_" class="st4" d="M100.8,206.9h37.7c1.7,0,3.1-1.4,3.1-3.1v-50.2c0-1.7-1.4-3.1-3.1-3.1h-37.7
				c-1.7,0-3.1,1.4-3.1,3.1v50.2C97.6,205.5,99,206.9,100.8,206.9z M103.9,156.6h31.4v44h-31.4V156.6z"/>
			<path id="XMLID_154_" class="st4" d="M125.9,162.9h-6.3c-1.7,0-3.1,1.4-3.1,3.1s1.4,3.1,3.1,3.1h6.3c1.7,0,3.1-1.4,3.1-3.1
				S127.6,162.9,125.9,162.9z"/>
			<path id="XMLID_153_" class="st4" d="M125.9,175.5h-12.6c-1.7,0-3.1,1.4-3.1,3.1s1.4,3.1,3.1,3.1h12.6c1.7,0,3.1-1.4,3.1-3.1
				S127.6,175.5,125.9,175.5z"/>
			<path id="XMLID_152_" class="st4" d="M125.9,188h-12.6c-1.7,0-3.1,1.4-3.1,3.1c0,1.7,1.4,3.1,3.1,3.1h12.6c1.7,0,3.1-1.4,3.1-3.1
				C129,189.4,127.6,188,125.9,188z"/>
			<path id="XMLID_148_" class="st4" d="M204.7,205.9c-0.9-1.5-2.8-2-4.3-1.2s-2,2.8-1.2,4.3l13.8,24l-50.2,18.8c0,0,0,0-0.2,0h-0.3
				l-8.2,4.7l-5.4,3.1c-1.4,0.8-3.2,1.1-4.8,0.6c-1.6-0.4-3-1.5-3.8-2.9l-6.3-10.9c-1.5-3-0.5-6.6,2.4-8.3l10.9-6.3l7.8,13.6
				c0.6,1,1.6,1.6,2.7,1.6c1.7,0,3.1-1.4,3.2-3.1c0-0.6-0.1-1.1-0.4-1.6l-8.1-14l39.4-32.5l1.3,2.2c0.9,1.5,2.8,2,4.3,1.2
				s2-2.8,1.2-4.3l-3.1-5.4c-0.5-0.8-1.3-1.3-2.2-1.5c-0.9-0.2-1.9,0.1-2.6,0.7l-44,36.2l-13.4,7.7c-4.9,2.9-7.3,8.7-5.8,14.2
				l-3.1,1.8c-4.5,2.6-6.1,8.3-3.5,12.9c1.2,2.2,3.3,3.8,5.7,4.4c0.8,0.2,1.6,0.3,2.4,0.3c1.7,0,3.3-0.4,4.7-1.3l3.1-1.8
				c1.5,1.6,3.4,2.7,5.5,3.3c1.1,0.3,2.2,0.4,3.3,0.4c2.2,0,4.4-0.6,6.3-1.7l2.7-1.6l6.3,10.9c2.6,4.5,8.3,6,12.8,3.5
				c4.5-2.6,6.1-8.4,3.5-12.9c0,0,0,0,0,0l-5.7-10l47.1-17.7c0.9-0.3,1.5-1,1.9-1.9c0.3-0.9,0.2-1.8-0.2-2.6L204.7,205.9z
				 M130.6,259.6c-0.7,0.4-1.6,0.5-2.4,0.3c-0.8-0.2-1.5-0.7-1.9-1.4c-0.4-0.7-0.5-1.6-0.3-2.4c0.2-0.8,0.7-1.5,1.5-1.9l2.7-1.6
				l3.1,5.4L130.6,259.6z M171.9,268.4c0.4,0.7,0.5,1.6,0.3,2.4c-0.2,0.8-0.8,1.5-1.5,1.9c-1.5,0.9-3.4,0.4-4.3-1.1l-6.3-10.9l5.2-3
				h0.3L171.9,268.4z"/>
		</g>
		<g id="Branding" class="st3">
			<path id="XMLID_191_" class="st5" d="M207.9,297.5c-1.5,0-2.7-1.2-2.7-2.7v-7.1c0-1-0.8-1.8-1.8-1.8h-7.1c-1,0-1.8,0.8-1.8,1.8
				v7.1c0,1.5-1.2,2.7-2.7,2.7s-2.7-1.2-2.7-2.7v-7.1c0-3.9,3.2-7.1,7.1-7.1h7.1c3.9,0,7.1,3.2,7.1,7.1v7.1
				C210.5,296.4,209.3,297.5,207.9,297.5L207.9,297.5z"/>
			<g id="XMLID_177_" class="st6">
				<path id="XMLID_187_" class="st1" d="M225.3,200.5c-0.9-1.2-2.5-1.4-3.7-0.6c-1.2,0.9-1.4,2.5-0.6,3.7l13.2,17.8
					c1.5,2,1.4,5-0.2,6.8l-14.2,16.2h-40l-14.2-16.2c-1.6-1.8-1.7-4.8-0.2-6.8l26.2-35.4v20.1c-3.3,2.6-5.3,6.5-5.3,10.7
					c0,7.5,6.1,13.5,13.5,13.5c7.5,0,13.5-6.1,13.5-13.5c0-4.1-1.8-7.9-4.9-10.4v-20l5.8,7.9c0.9,1.2,2.5,1.4,3.7,0.6
					c1.2-0.9,1.4-2.5,0.6-3.7l-11.4-15.4c-1.8-2.4-4.5-3.8-7.3-3.8c-2.9,0-5.5,1.4-7.3,3.8l-31.4,42.4c-2.9,4-2.7,9.8,0.5,13.5
					l11.8,13.5c-3,1.4-5,4.4-5,7.9v12.7c0,3.9,2.6,7.2,6.1,8.3l0.7,20.9c0,1.4,1.2,2.6,2.7,2.6c0,0,0.1,0,0.1,0
					c1.5-0.1,2.6-1.3,2.6-2.7l-0.7-20.4h40.3l-0.7,20.4c-0.1,1.5,1.1,2.7,2.6,2.7c0,0,0.1,0,0.1,0c1.4,0,2.6-1.1,2.7-2.6l0.7-21
					c3.3-1.2,5.7-4.4,5.7-8.1v-12.7c0-3.5-2.1-6.5-5-7.9l11.8-13.5c3.2-3.7,3.5-9.5,0.5-13.5L225.3,200.5z M199.8,177.4
					c1.2,0,2.3,0.6,3.1,1.7l0.2,0.3v28.5c0,0.9,0.4,1.7,1.2,2.2c2.3,1.5,3.7,4.1,3.7,6.9c0,4.5-3.7,8.2-8.2,8.2s-8.2-3.7-8.2-8.2
					c0-2.9,1.5-5.5,4-7c0.8-0.5,1.3-1.3,1.3-2.3V179C197.6,178,198.7,177.4,199.8,177.4L199.8,177.4z M225.9,265.8
					c0,1.8-1.5,3.4-3.4,3.4h-45.4c-1.8,0-3.4-1.5-3.4-3.4v-12.7c0-1.8,1.5-3.4,3.4-3.4h45.4c1.8,0,3.4,1.5,3.4,3.4V265.8z"/>
				<path id="XMLID_184_" class="st2" d="M147,201.3c0.3-8.4,2.7-16.6,6.8-23.9c0.7-1.3,0.3-2.9-1-3.6c-1.3-0.7-2.9-0.3-3.6,1
					c-4.6,8.1-7.2,17.2-7.5,26.5c-4.6,1.2-8,5.3-8,10.3c0,5.8,4.8,10.6,10.6,10.6c5.8,0,10.6-4.8,10.6-10.6
					C154.9,206.6,151.5,202.5,147,201.3L147,201.3z M144.3,216.8c-2.9,0-5.3-2.4-5.3-5.3c0-2.9,2.4-5.3,5.3-5.3
					c2.9,0,5.3,2.4,5.3,5.3C149.6,214.5,147.2,216.8,144.3,216.8z"/>
				<path id="XMLID_178_" class="st1" d="M284.6,137.9H276c-3.1,0-5.6,2.5-5.6,5.6v1.6h-60.5v-1.6c0-3.1-2.5-5.6-5.6-5.6h-8.5
					c-3.1,0-5.6,2.5-5.6,5.6v1.6h-60.5v-1.6c0-3.1-2.5-5.6-5.6-5.6h-8.5c-3.1,0-5.6,2.5-5.6,5.6v8.5c0,3.1,2.5,5.6,5.6,5.6h8.5
					c3.1,0,5.6-2.5,5.6-5.6v-1.6h46.1c-7.4,3.4-14,8.3-19.5,14.5c-1,1.1-0.9,2.8,0.2,3.7c0.5,0.4,1.1,0.7,1.8,0.7
					c0.7,0,1.5-0.3,2-0.9c7.9-8.9,18.4-14.9,30-17.1v0.7c0,3.1,2.5,5.6,5.6,5.6h8.5c3.1,0,5.6-2.5,5.6-5.6v-0.7
					c24.1,4.5,42.1,25.3,43.1,49.9c-4.5,1.2-7.9,5.3-7.9,10.2c0,5.8,4.8,10.6,10.6,10.6c5.8,0,10.6-4.8,10.6-10.6
					c0-4.9-3.4-9.1-8-10.3c-0.8-22.3-14.4-41.8-34-50.8h46.1v1.6c0,3.1,2.5,5.6,5.6,5.6h8.5c3.1,0,5.6-2.5,5.6-5.6v-8.5
					C290.2,140.4,287.7,137.9,284.6,137.9L284.6,137.9z M124.3,152.1c0,0.2-0.1,0.3-0.3,0.3h-8.5c-0.2,0-0.3-0.1-0.3-0.3v-8.5
					c0-0.2,0.1-0.3,0.3-0.3h8.5c0.2,0,0.3,0.1,0.3,0.3V152.1z M261,211.5c0,2.9-2.4,5.3-5.3,5.3s-5.3-2.4-5.3-5.3
					c0-2.9,2.4-5.3,5.3-5.3S261,208.6,261,211.5z M204.6,152.1c0,0.2-0.1,0.3-0.3,0.3h-8.5c-0.2,0-0.3-0.1-0.3-0.3v-8.5
					c0-0.2,0.1-0.3,0.3-0.3h8.5c0.2,0,0.3,0.1,0.3,0.3V152.1z M284.9,152.1c0,0.2-0.1,0.3-0.3,0.3H276c-0.2,0-0.3-0.1-0.3-0.3v-8.5
					c0-0.2,0.1-0.3,0.3-0.3h8.5c0.2,0,0.3,0.1,0.3,0.3V152.1z"/>
			</g>
		</g>
	</g>
	<g id="XMLID_1_" class="st7">
		<path id="XMLID_4_" class="st8" d="M285.9,100.6c-23.2-20.5-53.7-32.9-87.1-32.9c-72.8,0-131.8,59-131.8,131.8
			s59,131.8,131.8,131.8s131.8-59,131.8-131.8c0-32.9-12.1-63.1-32.1-86.2c-1.6,2.4-4.4,4-7.5,4c-5,0-9.1-4.1-9.1-9.1
			C281.8,105.5,282.8,102.6,285.9,100.6z"/>
		<path id="XMLID_16_" class="st8" d="M281.8,108.2c0,5,4.1,9.1,9.1,9.1c3.1,0,5.6-1.1,7.2-3.5l0.3-0.4c1-1.5,1.6-3.2,1.6-5.1
			c0-5-4.1-9.1-9.1-9.1c-1.9,0-3.6,0.6-5,1.5"/>
	</g>
</g>
<g id="Layer_2">
	<g id="XMLID_5_">
		<path id="XMLID_38_" class="st9" d="M199.1,330.6c-71.8,0-129.9-58.2-129.9-129.9S127.3,70.8,199.1,70.8S329,129,329,200.7
			S270.8,330.6,199.1,330.6z" stroke="#5D5D5D" fill="none" stroke-width="3"/>
		<path id="XMLID_15_" class="st2" d="M12.65,0c0,7,-4.8,12.7,-12.7,12.7c-7.9,0,-12.6,-5.7,-12.6,-12.7c0,-7,4.8,-12.7,12.6,-12.7c7.7,0,12.7,5.7,12.7,12.7"/>
		 
		<animateMotion 
           xlink:href="#XMLID_15_"
           dur="10s"
           begin="0s"
           repeatCount="indefinite">
            <mpath xlink:href="#XMLID_38_"/>
      	</animateMotion>
      </g>
</g>
</svg>
